<svg xmlns="http://www.w3.org/2000/svg" viewBox="0 0 128 128">
  <defs>
    <linearGradient id="bg" x1="0%" y1="0%" x2="100%" y2="100%">
      <stop offset="0%" style="stop-color:#0d1117"/>
      <stop offset="100%" style="stop-color:#161b22"/>
    </linearGradient>
    <linearGradient id="glow" x1="0%" y1="0%" x2="100%" y2="100%">
      <stop offset="0%" style="stop-color:#58a6ff"/>
      <stop offset="100%" style="stop-color:#1f6feb"/>
    </linearGradient>
  </defs>
  <rect width="128" height="128" rx="24" fill="url(#bg)"/>
  <!-- Brain/neural network motif -->
  <circle cx="64" cy="52" r="22" fill="none" stroke="url(#glow)" stroke-width="2.5" opacity="0.9"/>
  <circle cx="52" cy="46" r="4" fill="#58a6ff" opacity="0.8"/>
  <circle cx="76" cy="46" r="4" fill="#58a6ff" opacity="0.8"/>
  <circle cx="64" cy="36" r="3.5" fill="#58a6ff" opacity="0.7"/>
  <circle cx="64" cy="62" r="3.5" fill="#58a6ff" opacity="0.7"/>
  <circle cx="48" cy="58" r="3" fill="#58a6ff" opacity="0.6"/>
  <circle cx="80" cy="58" r="3" fill="#58a6ff" opacity="0.6"/>
  <!-- Connections -->
  <line x1="52" y1="46" x2="64" y2="36" stroke="#58a6ff" stroke-width="1.2" opacity="0.5"/>
  <line x1="76" y1="46" x2="64" y2="36" stroke="#58a6ff" stroke-width="1.2" opacity="0.5"/>
  <line x1="52" y1="46" x2="48" y2="58" stroke="#58a6ff" stroke-width="1.2" opacity="0.5"/>
  <line x1="76" y1="46" x2="80" y2="58" stroke="#58a6ff" stroke-width="1.2" opacity="0.5"/>
  <line x1="52" y1="46" x2="64" y2="62" stroke="#58a6ff" stroke-width="1.2" opacity="0.4"/>
  <line x1="76" y1="46" x2="64" y2="62" stroke="#58a6ff" stroke-width="1.2" opacity="0.4"/>
  <line x1="48" y1="58" x2="64" y2="62" stroke="#58a6ff" stroke-width="1.2" opacity="0.4"/>
  <line x1="80" y1="58" x2="64" y2="62" stroke="#58a6ff" stroke-width="1.2" opacity="0.4"/>
  <!-- Text -->
  <text x="64" y="96" text-anchor="middle" font-family="monospace" font-size="16" font-weight="bold" fill="#58a6ff">ANIMUS</text>
</svg>
